<?xml version="1.0" encoding="UTF-8"?>
<svg width="447px" height="94px" viewBox="0 0 447 94" version="1.1" xmlns="http://www.w3.org/2000/svg" xmlns:xlink="http://www.w3.org/1999/xlink">
    <!-- Generator: Sketch 42 (36781) - http://www.bohemiancoding.com/sketch -->
    <title>arbor-name</title>
    <desc>Created with Sketch.</desc>
    <defs></defs>
    <g id="Page-1" stroke="none" stroke-width="1" fill="none" fill-rule="evenodd">
        <g id="arbor-v1" transform="translate(-497.000000, -197.000000)" fill-rule="nonzero" fill="#FFFFFF">
            <g id="arbor-name" transform="translate(497.000000, 196.734694)">
                <path d="M63.1881633,80.46 L27.7322449,80.46 L22.4716327,91.7718367 L0,91.7718367 L0,88.4269388 L40.4428571,0.699387755 L50.3255102,0.699387755 L90.9204082,88.4269388 L90.9204082,91.7718367 L68.4487755,91.7718367 L63.1881633,80.46 Z M45.3385714,37.1587755 L35.1822449,60.8163265 L55.7381633,60.8163265 L45.3385714,37.1587755 Z" id="Shape"></path>
                <path d="M177.005918,88.4269388 L177.005918,91.7718367 L151.31102,91.7718367 L135.894082,65.3167347 L123.974082,65.3167347 L123.974082,91.7718367 L100.98551,91.7718367 L100.98551,1.85489796 L140.516122,1.85489796 C175.82,1.85489796 182.266531,44.4263265 159.521224,59.9040816 L177.005918,88.4269388 Z M140.516122,22.4108163 L124.065306,22.4108163 L124.065306,44.882449 L140.516122,44.882449 C152.861837,44.882449 153.500408,22.532449 140.39449,22.4108163 L140.516122,22.4108163 Z" id="Shape"></path>
                <path d="M247.856939,45.0040816 C254.742524,48.4202746 258.972307,55.5692037 258.651837,63.2489796 C258.651837,78.9091837 249.012449,91.6197959 230.645918,91.6197959 L188.530612,91.6197959 L188.530612,1.85489796 L226.936122,1.85489796 C234.329604,1.74075675 241.459268,4.60023807 246.724902,9.79154714 C251.990536,14.9828562 254.951074,22.0711536 254.942041,29.4655102 C254.830718,35.4019448 252.265785,41.027183 247.856939,45.0040816 Z M210.75898,22.4108163 L210.75898,36.9155102 L225.263673,36.9155102 C234.386122,36.9155102 234.386122,22.4108163 225.263673,22.4108163 L210.75898,22.4108163 Z M210.75898,56.0726531 L210.75898,71.2767347 L229.003878,71.2767347 C238.126327,71.2767347 238.126327,56.0726531 229.003878,56.0726531 L210.75898,56.0726531 Z" id="Shape"></path>
                <path d="M266.071429,46.9197959 C266.071429,-15.2344898 358.26898,-15.2344898 358.26898,46.9197959 C358.26898,109.074082 266.071429,109.226122 266.071429,46.9197959 Z M334.793878,46.9197959 C334.793878,14.5655102 289.72898,14.5655102 289.72898,46.9197959 C289.72898,79.2740816 334.793878,79.5477551 334.793878,46.9197959 Z" id="Shape"></path>
                <path d="M446.026939,88.4269388 L446.026939,91.7718367 L420.332041,91.7718367 L404.915102,65.3167347 L392.964694,65.3167347 L392.964694,91.7718367 L369.976122,91.7718367 L369.976122,1.85489796 L409.506735,1.85489796 C444.810612,1.85489796 451.257143,44.4263265 428.511837,59.9040816 L446.026939,88.4269388 Z M409.537143,22.4108163 L393.086327,22.4108163 L393.086327,44.882449 L409.537143,44.882449 C421.882857,44.882449 422.673469,22.532449 409.41551,22.4108163 L409.537143,22.4108163 Z" id="Shape"></path>
            </g>
        </g>
    </g>
</svg>