<?xml version="1.0" encoding="UTF-8"?>
<svg width="1440px" height="191px" viewBox="0 0 1440 191" version="1.1" xmlns="http://www.w3.org/2000/svg" xmlns:xlink="http://www.w3.org/1999/xlink">
    <!-- Generator: Sketch 42 (36781) - http://www.bohemiancoding.com/sketch -->
    <title>mountain-7</title>
    <desc>Created with Sketch.</desc>
    <defs></defs>
    <g id="Page-1" stroke="none" stroke-width="1" fill="none" fill-rule="evenodd" opacity="0.12">
        <g id="arbor-v1" transform="translate(0.000000, -124.000000)" fill-rule="nonzero" fill="#288F7F">
            <g id="mountain-7" style="mix-blend-mode: screen;" transform="translate(-8.000000, 123.325894)">
                <polygon id="Shape" points="817.9808 82.1006326 945.065333 141.354464 1072.14987 82.1006326 945.065333 22.822537"></polygon>
                <polygon id="Shape" points="441.7504 94.5725692 568.834933 153.850665 695.943733 94.5725692 568.834933 35.3187381"></polygon>
                <polygon id="Shape" points="169.235733 131.794263 243.7344 166.540982 370.8432 107.262886 243.7344 48.0090549 169.235733 82.7557732 94.7370667 48.0090549 0 92.1946513 0 122.355385 94.7370667 166.540982"></polygon>
                <polygon id="Shape" points="1305.86213 93.2380235 1222.4576 54.3663456 1095.3488 113.620177 1222.4576 172.898272 1266.1376 152.516119 1349.54213 191.412061 1456 141.76696 1456 122.525236 1349.54213 72.8801347"></polygon>
                <polygon id="Shape" points="1254.9264 59.9229088 1290.3072 76.4227471 1325.71227 59.9229088 1290.3072 43.4230705"></polygon>
                <polygon id="Shape" points="1052.05707 54.3420811 1085.76347 70.0654564 1119.46987 54.3420811 1085.76347 38.6429702"></polygon>
                <polygon id="Shape" points="865.276533 22.822537 817.9808 0.76613554 770.6608 22.822537 817.9808 44.8789385"></polygon>
                <polygon id="Shape" points="500.2816 44.8789385 452.985867 22.822537 405.665867 44.8789385 452.985867 66.9596045"></polygon>
                <polygon id="Shape" points="145.1632 49.1980139 174.9384 63.0772896 204.7136 49.1980139 174.9384 35.3187381"></polygon>
                <polygon id="Shape" points="38.9237333 35.3187381 9.14853333 21.4151979 0 25.6857443 0 44.9274675 9.14853333 49.1980139"></polygon>
                <polygon id="Shape" points="1417.44027 62.5434713 1387.66507 76.4227471 1417.44027 90.3020228 1447.21547 76.4227471"></polygon>
            </g>
        </g>
    </g>
</svg>