<?xml version="1.0" encoding="UTF-8"?>
<svg width="1456px" height="1099px" viewBox="0 0 1456 1099" version="1.1" xmlns="http://www.w3.org/2000/svg" xmlns:xlink="http://www.w3.org/1999/xlink">
    <!-- Generator: Sketch 41.2 (35397) - http://www.bohemiancoding.com/sketch -->
    <title>mountain-5</title>
    <desc>Created with Sketch.</desc>
    <defs></defs>
    <g id="Symbols" stroke="none" stroke-width="1" fill="none" fill-rule="evenodd">
        <g id="mountain-5">
            <g transform="translate(0.000000, 434.000000)">
                <polygon id="Fill-1" fill="#1F4446" points="719.641104 -0.000242666667 500.292277 98.223944 469.963797 120.874451 481.019691 89.5947173 430.916304 112.031677 363.326357 145.512397 371.547904 120.874451 355.102384 105.234584 371.547904 85.447544 275.250491 128.571837 243.745077 145.512397 251.563797 133.743064 243.745077 114.463197 221.837131 124.274211 169.057131 145.512397 146.409051 133.743064 88.1714773 155.219064 117.289051 114.463197 97.0652107 105.234584 105.963797 85.447544 88.1714773 64.415624 20.600944 94.6737307 0.000970666667 85.447544 0.000970666667 103.899917 0.000970666667 164.268104 0.000970666667 224.784317 0.000970666667 664.413811 1456.00097 664.413811 1456.00097 180.953864 1382.79572 168.160477 1405.03854 132.568557 1387.24622 120.874451 1360.54804 86.5346907 1258.63046 132.173011 1199.58238 155.219064 1162.77713 139.040477 1168.84622 118.010984 1156.71046 86.5346907 1072.16054 124.395544 1002.2143 151.981891 1010.29996 203.752397 979.566224 166.541891 861.465211 122.861891 840.433291 101.876077 837.198544 130.952397 903.526624 180.296237 903.526624 203.752397 806.462384 163.307144 691.600971 130.952397 727.998544 112.958664 719.641104 53.299064 751.457131 53.299064"></polygon>
                <path d="M817.232659,43.7030533 L817.232659,43.7006267 L719.641832,-0.00121333333 L817.232659,43.7030533 Z M806.460685,72.7114267 L839.048392,53.4728133 L817.232659,43.7030533 L806.460685,72.7114267 Z" id="Fill-2" fill="#1F4446"></path>
                <polygon id="Fill-3" fill="#1F4948" points="719.641104 -0.000242666667 751.457131 53.299064 719.641104 53.299064 727.998544 112.958664 691.600971 130.952397 806.462384 163.307144 903.526624 203.752397 903.526624 180.296237 837.198544 130.952397 840.433291 101.876077 861.465211 122.861891 979.566224 166.541891 1010.29996 203.752397 1002.2143 151.981891 1072.16054 124.395544 1023.46948 102.591944 1005.01953 110.854744 857.963531 44.999864 839.050091 53.473784 806.462384 72.7123973 817.231931 43.7015973"></polygon>
                <polygon id="Fill-4" fill="#1F4948" points="1162.77616 139.040235 1199.58141 155.218821 1258.62949 132.172768 1156.70949 86.534448 1168.84525 118.008315"></polygon>
                <polygon id="Fill-5" fill="#1F4948" points="1387.24622 120.875421 1405.03854 132.569528 1382.79572 168.161448 1456.00097 180.952408 1456.00097 129.276541 1360.54804 86.5332347"></polygon>
                <polygon id="Fill-6" fill="#1F4948" points="500.292763 98.2254 481.020176 89.5937467 469.964283 120.875907"></polygon>
                <polygon id="Fill-7" fill="#1F4948" points="371.548875 120.875664 363.324901 145.511184 430.914848 112.030464 371.548875 85.4463307 355.103355 105.235797"></polygon>
                <polygon id="Fill-8" fill="#1F4948" points="243.744835 145.512155 275.247821 128.571595 243.744835 114.462955 251.563555 133.742821"></polygon>
                <polygon id="Fill-9" fill="#1F4948" points="97.0666667 105.235069 117.28808 114.463683 88.16808 155.219549 146.40808 133.743549 169.058587 145.512883 221.838587 124.274696 88.16808 64.4161093 105.965253 85.4480293"></polygon>
            </g>
        </g>
    </g>
</svg>