<?xml version="1.0" encoding="UTF-8"?>
<svg width="1456px" height="1099px" viewBox="0 0 1456 1099" version="1.1" xmlns="http://www.w3.org/2000/svg" xmlns:xlink="http://www.w3.org/1999/xlink">
    <!-- Generator: Sketch 41.2 (35397) - http://www.bohemiancoding.com/sketch -->
    <title>mountain-1</title>
    <desc>Created with Sketch.</desc>
    <defs></defs>
    <g id="Symbols" stroke="none" stroke-width="1" fill="none" fill-rule="evenodd">
        <g id="mountain-1" fill="#11182A">
            <path d="M85.1493067,598 L73.20768,623.608613 L78.3522133,623.608613 L68.5970133,644.528907 L74.2826933,644.528907 L63.4112267,667.832187 L70.0942667,667.832187 L59.82704,689.849333 L0,661.94752 L0,798.959547 L0,869.47848 L0,877.32632 L0,1098.94893 L908.175147,1098.94893 L955.672293,1098.94893 L1172.24744,1098.94893 L1456,1098.94893 L1456,772.60352 L1434.77637,782.501893 L1431.68237,775.87224 L1439.12739,775.87224 L1426.34856,748.472747 L1433.08741,748.472747 L1417.44755,714.933787 L1401.80525,748.472747 L1408.54411,748.472747 L1395.76528,775.87224 L1403.21272,775.87224 L1390.48728,803.15768 L1373.51517,811.073467 L1345.34885,797.935493 L1307.29144,815.68656 L1299.85856,799.745787 L1304.85021,799.745787 L1296.28165,781.378347 L1300.80011,781.378347 L1290.31448,758.89528 L1279.83128,781.378347 L1284.34973,781.378347 L1275.7836,799.745787 L1280.77525,799.745787 L1271.23117,820.205013 L1277.10128,820.205013 L1271.39861,832.425707 L1243.95059,845.2288 L1241.78115,840.57688 L1250.53171,840.57688 L1236.29688,810.054267 L1243.74189,810.054267 L1230.96307,782.6572 L1237.70192,782.6572 L1222.06205,749.11824 L1206.41976,782.6572 L1213.15861,782.6572 L1200.38221,810.054267 L1207.82723,810.054267 L1193.5924,840.57688 L1202.34296,840.57688 L1191.88403,863.00656 L1172.24744,853.845893 L1166.77531,856.398747 L1156.23872,833.804053 L1166.41616,833.804053 L1148.94901,796.353307 L1158.16064,796.353307 L1136.78171,750.511147 L1115.40035,796.353307 L1124.61197,796.353307 L1117.97504,810.585707 L1099.62944,771.247013 L1073.76845,826.691493 L1084.91171,826.691493 L1077.20947,843.20496 L1066.75781,848.077707 L1058.23779,829.80976 L1063.22701,829.80976 L1054.66331,811.444747 L1059.18176,811.444747 L1048.69613,788.959253 L1038.21051,811.444747 L1042.72896,811.444747 L1034.16283,829.807333 L1039.15205,829.807333 L1029.6104,850.268987 L1035.47808,850.268987 L1028.08888,866.11512 L1026.56251,866.826133 L1017.00629,846.332933 L1028.14712,846.332933 L1002.28856,790.886027 L984.802,828.38288 L971.484453,799.828293 L982.627707,799.828293 L956.769147,744.381387 L931.022213,799.580773 L923.130693,782.6572 L929.869547,782.6572 L914.227253,749.11824 L898.58496,782.6572 L905.32624,782.6572 L892.547413,810.054267 L899.99,810.054267 L885.7576,840.57688 L894.510587,840.57688 L885.971147,858.881227 L877.273973,840.222587 L883.542053,840.222587 L872.782213,817.154693 L878.45576,817.154693 L865.28624,788.91072 L852.114293,817.154693 L857.78784,817.154693 L851.007733,831.692853 L836.345813,800.25296 L820.853973,833.474027 L815.663333,822.350187 L820.181787,822.350187 L809.698587,799.864693 L799.989493,820.685493 L775.89512,769.024187 L750.034133,824.47352 L761.177387,824.47352 L749.073173,850.431573 L748.313627,850.07728 L743.945627,840.7152 L748.93728,840.7152 L740.371147,822.350187 L744.8896,822.350187 L734.403973,799.864693 L723.918347,822.350187 L728.4368,822.350187 L724.779813,830.193173 L715.597307,810.505627 L721.867813,810.505627 L711.107973,787.435307 L716.783947,787.435307 L703.612,759.191333 L690.440053,787.435307 L696.116027,787.435307 L687.236853,806.47736 L681.606987,794.409547 L692.747813,794.409547 L666.889253,738.96264 L650.159813,774.836053 L645.250667,764.314027 L634.76504,786.797093 L639.283493,786.797093 L634.5248,797.008507 L619.173707,789.84984 L597.47688,799.966613 L590.52448,785.057173 L595.909253,785.057173 L587.151413,766.282053 L591.73296,766.282053 L583.87056,749.426427 L588.017733,749.426427 L578.393573,728.787627 L568.769413,749.426427 L572.916587,749.426427 L565.054187,766.282053 L569.635733,766.282053 L563.030347,780.441653 L544.60952,740.947653 L518.75096,796.39456 L529.894213,796.39456 L521.476107,814.446533 L500.293733,769.024187 L485.00088,801.813307 L480.6256,792.43424 L485.72888,792.43424 L473.889173,767.04888 L462.051893,792.43424 L467.152747,792.43424 L457.480053,813.170107 L463.1172,813.170107 L460.304693,819.197947 L423.0408,801.820587 L417.66088,790.28664 L423.931387,790.28664 L413.171547,767.211467 L418.84752,767.211467 L405.675573,738.972347 L392.503627,767.211467 L398.1796,767.211467 L389.365947,786.1152 L380.03056,781.76176 L369.85312,786.505893 L363.138533,772.106053 L372.42296,772.106053 L357.321813,739.722187 L365.218187,739.722187 L351.662827,710.653147 L358.814213,710.653147 L342.215813,675.063653 L325.61984,710.653147 L332.771227,710.653147 L319.21344,739.722187 L327.114667,739.722187 L322.804907,748.960507 L314.105307,730.304293 L318.686853,730.304293 L310.824453,713.448667 L314.971627,713.448667 L305.347467,692.817147 L295.723307,713.448667 L299.87048,713.448667 L292.00808,730.304293 L296.592053,730.304293 L287.834213,749.084267 L293.21656,749.084267 L289.069387,757.980427 L268.090853,748.196107 L266.1932,744.13144 L272.463707,744.13144 L261.703867,721.058693 L267.37984,721.058693 L254.207893,692.817147 L241.035947,721.058693 L246.709493,721.058693 L240.135653,735.160053 L188.469493,711.063253 L180.88616,714.598907 L172.366133,696.33096 L180.26736,696.33096 L166.709573,667.259493 L173.86096,667.259493 L157.26256,631.672427 L140.669013,667.259493 L147.8204,667.259493 L134.260187,696.33096 L142.161413,696.33096 L129.93344,722.543813 L115.630667,715.875333 L106.089013,695.418533 L113.070533,695.418533 L100.206773,667.832187 L106.887387,667.832187 L96.0183467,644.528907 L101.7016,644.528907 L91.9488267,623.608613 L97.09336,623.608613 L85.1493067,598 Z M317.478373,749.084267 L322.749093,749.084267 L320.113733,754.733547 L317.478373,749.084267 Z M565.1828,785.057173 L566.262667,785.057173 L565.72152,786.214693 L565.1828,785.057173 Z M559.327253,796.39456 L560.97496,796.39456 L560.15232,798.161173 L559.327253,796.39456 Z M928.46208,810.054267 L935.907093,810.054267 L931.136267,799.828293 L942.051413,799.828293 L932.871333,819.510987 L928.46208,810.054267 Z M689.115093,810.505627 L691.626693,810.505627 L690.36968,813.199227 L689.115093,810.505627 Z M790.612853,824.47352 L801.75368,824.47352 L800.7636,822.350187 L803.731413,822.350187 L796.677093,837.4756 L790.612853,824.47352 Z M720.671467,837.1844 L720.215253,836.20888 L721.97216,836.20888 L721.365493,837.509573 L720.671467,837.1844 Z M798.18648,840.7152 L800.156933,840.7152 L799.171707,842.8264 L798.18648,840.7152 Z M980.865947,846.332933 L987.570827,846.332933 L984.2196,853.525573 L980.865947,846.332933 Z M1061.91176,850.268987 L1062.06221,850.268987 L1061.94088,850.327227 L1061.91176,850.268987 Z"></path>
        </g>
    </g>
</svg>