<?xml version="1.0" encoding="UTF-8"?>
<svg width="1456px" height="1099px" viewBox="0 0 1456 1099" version="1.1" xmlns="http://www.w3.org/2000/svg" xmlns:xlink="http://www.w3.org/1999/xlink">
    <!-- Generator: Sketch 41.2 (35397) - http://www.bohemiancoding.com/sketch -->
    <title>mountain-3</title>
    <desc>Created with Sketch.</desc>
    <defs></defs>
    <g id="Symbols" stroke="none" stroke-width="1" fill="none" fill-rule="evenodd">
        <g id="mountain-3" fill="#1A2C32">
            <path d="M1086.79723,541 L1080.33259,554.86112 L1083.1184,554.86112 L1077.83797,566.1888 L1080.91256,566.1888 L1075.03275,578.802613 L1078.50531,578.802613 L1045.91517,594.000827 L1041.97427,585.5536 L1044.76008,585.5536 L1038.29544,571.690053 L1031.8308,585.5536 L1034.61661,585.5536 L1029.33376,596.878853 L1032.41077,596.878853 L1030.3748,601.24928 L1006.01349,612.610933 L1000.63357,601.076987 L1003.97752,601.076987 L996.219467,584.444613 L988.46384,601.076987 L991.802933,601.076987 L985.47176,614.66632 L989.16272,614.66632 L985.699867,622.082213 L936.919013,644.837067 L932.13848,634.586827 L935.48,634.586827 L927.724373,617.954453 L919.96632,634.586827 L923.310267,634.586827 L916.97424,648.17616 L920.667627,648.17616 L918.136613,653.594907 L890.057653,666.6892 L886.293893,658.62296 L889.63784,658.62296 L881.879787,641.990587 L874.12416,658.62296 L877.46568,658.62296 L871.127227,672.20744 L874.820613,672.20744 L873.874213,674.236133 L865.936587,677.939227 L865.106667,676.158053 L869.13736,676.158053 L862.218933,661.326267 L865.866213,661.326267 L857.399573,643.16752 L848.92808,661.326267 L852.577787,661.326267 L846.717387,673.898827 L836.48656,669.128 L833.455653,670.542747 L829.415253,661.881973 L832.756773,661.881973 L824.99872,645.247173 L817.243093,661.881973 L820.584613,661.881973 L814.24616,675.466453 L817.939547,675.466453 L816.563627,678.419707 L812.69552,680.225147 L792.760453,670.928587 L787.613493,659.894533 L790.62984,659.894533 L785.725547,649.379787 L788.29296,649.379787 L783.88856,639.94248 L786.21088,639.94248 L780.82368,628.38912 L775.434053,639.94248 L777.753947,639.94248 L773.3544,649.379787 L775.919387,649.379787 L771.01752,659.894533 L774.03144,659.894533 L773.148133,661.78248 L771.55624,661.03992 L758.323627,667.210933 L743.984453,660.520613 L742.987093,658.387573 L746.68048,658.387573 L740.342027,644.79824 L743.685973,644.79824 L735.92792,628.168293 L728.172293,644.79824 L731.51624,644.79824 L727.720933,652.939707 L717.34208,648.09608 L717.05088,648.2344 L713.04688,639.646427 L715.611867,639.646427 L711.207467,630.20912 L713.529787,630.20912 L708.142587,618.65576 L702.75296,630.20912 L705.07528,630.20912 L700.673307,639.646427 L703.238293,639.646427 L698.41408,649.993733 L696.504293,645.892667 L699.066853,645.892667 L694.667307,636.45536 L696.9872,636.45536 L691.6,624.899573 L686.210373,636.45536 L688.532693,636.45536 L684.13072,645.892667 L686.698133,645.892667 L681.791413,656.407413 L684.805333,656.407413 L680.713973,665.177387 L665.34104,672.348187 L580.880907,632.958533 L574.9016,620.14088 L578.070827,620.14088 L572.63024,608.473467 L575.500987,608.473467 L568.839787,594.192533 L562.178587,608.473467 L565.049333,608.473467 L559.608747,620.14088 L562.7804,620.14088 L561.103573,623.734773 L550.059813,618.585387 L536.73984,624.797653 L500.293733,607.798853 L459.664053,626.746267 L459.045253,625.421307 L462.21448,625.421307 L456.773893,613.753893 L459.64464,613.753893 L452.98344,599.470533 L446.32224,613.753893 L449.19056,613.753893 L443.749973,625.421307 L446.921627,625.421307 L442.5876,634.710587 L418.89848,645.7592 L393.008373,633.684107 L365.511813,646.50904 L362.502747,640.056533 L365.373493,640.056533 L358.712293,625.773173 L352.051093,640.056533 L354.92184,640.056533 L349.481253,651.723947 L352.65048,651.723947 L352.18456,652.723733 L334.564533,660.940427 L303.47408,646.441093 L300.01608,639.0252 L303.187733,639.0252 L297.74472,627.357787 L300.615467,627.357787 L293.954267,613.076853 L287.293067,627.357787 L290.163813,627.357787 L285.232827,637.935627 L268.804293,630.272213 L263.912133,619.779307 L267.253653,619.779307 L259.4956,603.146933 L251.737547,619.779307 L255.081493,619.779307 L253.513867,623.142667 L246.525067,619.881227 L244.843387,616.272773 L247.408373,616.272773 L243.003973,606.835467 L245.32872,606.835467 L239.939093,595.282107 L234.549467,606.835467 L236.871787,606.835467 L232.47224,616.272773 L235.0348,616.272773 L231.237067,624.419093 L220.440827,629.452 L215.577787,627.185493 L210.77056,616.877013 L213.939787,616.877013 L208.4992,605.2096 L211.372373,605.2096 L204.711173,590.928667 L198.047547,605.2096 L200.918293,605.2096 L195.47528,616.877013 L198.646933,616.877013 L197.7248,618.857173 L155.003333,598.93424 L145.06856,603.566747 L140.70056,594.207093 L143.02288,594.207093 L137.63568,582.651307 L132.246053,594.207093 L134.568373,594.207093 L130.168827,603.6444 L132.731387,603.6444 L129.346187,610.900133 L128.882693,611.116107 L122.87912,598.24264 L126.22064,598.24264 L118.465013,581.60784 L110.709387,598.24264 L114.050907,598.24264 L107.71488,611.82712 L111.40584,611.82712 L106.97232,621.3348 L96.9890133,625.989147 L81.61608,618.820773 L82.9361867,618.820773 L77.1316,606.376827 L80.1479467,606.376827 L75.2436533,595.859653 L77.80864,595.859653 L73.4066667,586.422347 L75.72656,586.422347 L70.33936,574.86656 L64.95216,586.422347 L67.27448,586.422347 L62.87008,595.859653 L65.4350667,595.859653 L60.5307733,606.376827 L63.54712,606.376827 L62.0086133,609.674667 L34.9245867,597.043867 L28.66136,583.621973 L32.3547467,583.621973 L26.01872,570.037493 L29.3626667,570.037493 L21.6046133,553.40512 L13.8489867,570.037493 L17.1905067,570.037493 L10.85448,583.6244 L14.54544,583.6244 L13.04576,586.84216 L0,580.758507 L0,671.22464 L0,732.262587 L0,772.07448 L0,793.807707 L0,822.80152 L0,1098.86883 L1456,1098.86883 L1456,643.308267 L1447.76632,647.14968 L1446.77139,645.014213 L1449.94061,645.014213 L1444.50245,633.344373 L1447.37077,633.344373 L1440.70957,619.061013 L1434.04837,633.344373 L1436.91912,633.344373 L1431.47611,645.014213 L1434.64776,645.014213 L1429.72891,655.562933 L1395.07368,671.722107 L1374.82557,662.282373 L1376.60432,662.282373 L1370.71965,649.663707 L1373.79909,649.663707 L1368.51624,638.34088 L1371.30205,638.34088 L1364.83741,624.477333 L1358.37035,638.34088 L1361.15859,638.34088 L1355.87573,649.663707 L1358.95517,649.663707 L1356.9556,653.946773 L1344.40973,648.09608 L1338.27997,650.954693 L1337.61507,649.53024 L1341.30603,649.53024 L1334.97,635.94576 L1338.31395,635.94576 L1330.55589,619.308533 L1322.79784,635.94576 L1326.13936,635.94576 L1319.80333,649.53024 L1323.49429,649.53024 L1320.22557,656.545733 L1284.61181,639.937627 L1281.74107,633.7836 L1284.91272,633.7836 L1279.47213,622.11376 L1282.34045,622.11376 L1275.67925,607.832827 L1269.01805,622.11376 L1271.89123,622.11376 L1267.33637,631.881093 L1248.28947,622.997067 L1243.23957,612.16928 L1246.93296,612.16928 L1240.59451,598.582373 L1243.93845,598.582373 L1236.1804,581.95 L1228.42235,598.582373 L1231.76387,598.582373 L1225.42784,612.16928 L1229.1188,612.16928 L1228.39808,613.71992 L1225.07355,612.16928 L1225.42784,612.16928 L1218.37109,597.031733 L1222.06205,597.031733 L1215.72603,583.447253 L1219.06755,583.447253 L1211.31192,566.812453 L1203.55629,583.447253 L1206.89539,583.447253 L1200.55936,597.031733 L1204.25275,597.031733 L1202.17309,601.48952 L1196.69368,598.93424 L1181.92256,605.823547 L1146.54419,589.322213 L1142.66637,581.0036 L1145.74096,581.0036 L1140.46296,569.680773 L1143.24635,569.680773 L1136.78171,555.817227 L1130.31464,569.680773 L1133.10045,569.680773 L1127.97776,580.666293 L1101.24317,568.19808 L1094.97995,571.11736 L1092.68189,566.1888 L1095.76133,566.1888 L1090.47605,554.86112 L1093.26429,554.86112 L1086.79723,541 Z M1128.70576,581.0036 L1130.89704,581.0036 L1130.50635,581.843227 L1128.70576,581.0036 Z M142.537547,603.6444 L144.905973,603.6444 L142.962213,604.549547 L142.537547,603.6444 Z M125.52176,611.82712 L127.35632,611.82712 L125.851787,612.530853 L125.52176,611.82712 Z M287.57456,639.0252 L287.892453,639.0252 L287.83664,639.14896 L287.57456,639.0252 Z M698.49416,650.1636 L701.350347,650.1636 L699.92104,653.223627 L698.49416,650.1636 Z M698.389813,656.407413 L698.438347,656.407413 L698.41408,656.455947 L698.389813,656.407413 Z"></path>
        </g>
    </g>
</svg>