<?xml version="1.0" encoding="UTF-8"?>
<svg width="1456px" height="1099px" viewBox="0 0 1456 1099" version="1.1" xmlns="http://www.w3.org/2000/svg" xmlns:xlink="http://www.w3.org/1999/xlink">
    <!-- Generator: Sketch 41.2 (35397) - http://www.bohemiancoding.com/sketch -->
    <title>mountain-4</title>
    <desc>Created with Sketch.</desc>
    <defs></defs>
    <g id="Symbols" stroke="none" stroke-width="1" fill="none" fill-rule="evenodd">
        <g id="mountain-4" fill="#23373E">
            <path d="M418.54176,570.002427 L411.74224,584.579413 L414.673653,584.579413 L409.119013,596.489493 L412.35376,596.489493 L409.22336,603.201653 L408.755013,602.990533 L403.219787,591.124133 L406.1512,591.124133 L399.35168,576.54472 L392.55216,591.124133 L395.481147,591.124133 L393.23648,595.93864 L368.7684,584.819653 L332.640187,601.236053 L331.732613,599.289867 L334.513573,599.289867 L329.742747,589.063893 L332.2592,589.063893 L326.42064,576.54472 L320.58208,589.063893 L323.098533,589.063893 L318.327707,599.289867 L321.10624,599.289867 L316.85472,608.40928 L312.003813,610.612693 L310.17168,606.693627 L313.707333,606.693627 L307.643093,593.691547 L310.84144,593.691547 L303.420693,577.777467 L295.99752,593.691547 L299.19344,593.691547 L293.131627,606.693627 L296.664853,606.693627 L290.219627,620.511067 L270.709227,629.378107 L268.1588,623.9084 L270.672827,623.9084 L264.834267,611.389227 L258.998133,623.9084 L261.51216,623.9084 L256.74376,634.134373 L259.52472,634.134373 L259.32816,634.55176 L237.89584,644.289973 L202.13648,628.041013 L133.1512,659.39112 L88.1705067,638.412587 L45.7353867,658.202053 L0,637.417653 L0,673.111493 L0,679.532453 L0,749.294267 L0,1099.074 L1456.00243,1099.074 L1456.00243,597.68584 L1440.73627,604.621253 L1438.87016,600.622107 L1440.90613,600.622107 L1436.18141,590.495627 L1431.45912,600.622107 L1433.49509,600.622107 L1429.63669,608.892187 L1431.33293,608.892187 L1414.14243,616.703627 L1408.27475,604.126213 L1401.47523,618.7032 L1404.40664,618.7032 L1402.97248,621.78264 L1398.14584,623.97392 L1395.32848,617.929093 L1397.57315,617.929093 L1393.71717,609.65416 L1395.75072,609.65416 L1391.02843,599.52768 L1386.30613,609.65416 L1388.34211,609.65416 L1384.48128,617.929093 L1386.7308,617.929093 L1384.75307,622.16848 L1379.98709,611.949787 L1374.14853,624.466533 L1376.66499,624.466533 L1371.89416,634.694933 L1374.55621,634.694933 L1366.06773,638.550907 L1349.25821,630.914187 L1349.11989,630.61328 L1352.35464,630.61328 L1346.80243,618.7032 L1349.73141,618.7032 L1342.93189,604.126213 L1336.13237,618.7032 L1339.06136,618.7032 L1336.14693,624.95672 L1321.06035,618.101387 L1305.07347,625.361973 L1304.04699,623.160987 L1306.08296,623.160987 L1301.35824,613.034507 L1296.63595,623.160987 L1298.66949,623.160987 L1296.33747,628.164773 L1291.92579,618.7032 L1294.85477,618.7032 L1288.05525,604.126213 L1281.25816,618.7032 L1284.18715,618.7032 L1281.42075,624.6364 L1279.00379,619.45304 L1281.52024,619.45304 L1275.68168,606.933867 L1269.84069,619.45304 L1272.35715,619.45304 L1267.58875,629.679013 L1270.36728,629.679013 L1269.49125,631.55968 L1256.21496,637.592373 L1207.66949,614.956427 L1179.27992,628.193893 L1083.82456,584.819653 L1017.97939,614.740453 L1009.4084,610.84808 L984.843253,622.010747 L981.101333,613.98576 L983.61536,613.98576 L977.779227,601.46416 L971.940667,613.98576 L974.454693,613.98576 L969.686293,624.211733 L972.467253,624.211733 L970.43856,628.557893 L962.170907,632.314373 L958.79784,625.08048 L960.831387,625.08048 L956.11152,614.956427 L951.3868,625.08048 L953.422773,625.08048 L951.435333,629.34656 L938.474507,623.459467 L938.32648,623.139147 L940.573573,623.139147 L936.7176,614.86664 L938.751147,614.86664 L934.028853,604.74016 L929.30656,614.86664 L931.342533,614.86664 L929.282293,619.283173 L910.725573,610.84808 L873.40344,627.808053 L869.154347,618.7032 L872.088187,618.7032 L865.288667,604.126213 L858.48672,618.7032 L861.418133,618.7032 L855.863493,630.61328 L859.09824,630.61328 L856.91424,635.3016 L844.827013,640.793147 L841.24768,633.11032 L844.176667,633.11032 L837.377147,618.53576 L830.577627,633.11032 L833.506613,633.11032 L827.951973,645.022827 L831.189147,645.022827 L830.024347,647.522293 L807.478187,657.765253 L804.609867,651.618507 L807.252507,651.618507 L802.95488,642.402027 L805.2044,642.402027 L801.346,634.12952 L803.379547,634.12952 L798.65968,624.00304 L793.932533,634.12952 L795.968507,634.12952 L792.112533,642.402027 L794.359627,642.402027 L790.062,651.618507 L792.70464,651.618507 L790.530347,656.277707 L773.211227,648.4056 L752.8612,657.656053 L746.777547,644.622427 L739.980453,659.20184 L742.911867,659.20184 L741.14768,662.975307 L734.03512,666.21248 L656.141547,629.88528 L652.501547,631.58152 L649.123627,624.333067 L652.052613,624.333067 L645.253093,609.75608 L638.453573,624.333067 L641.38256,624.333067 L635.82792,636.243147 L639.065093,636.243147 L638.108987,638.291253 L621.513013,646.034747 L619.777947,642.31952 L622.9496,642.31952 L617.792933,631.2612 L620.491387,631.2612 L615.861307,621.336133 L618.302533,621.336133 L612.636267,609.183387 L606.97,621.336133 L609.411227,621.336133 L604.781147,631.2612 L607.4796,631.2612 L602.322933,642.31952 L605.49216,642.31952 L599.386667,655.40896 L601.410507,655.40896 L599.81376,656.153947 L554.813653,635.702 L532.432507,645.874587 L484.69512,624.180187 L483.190587,620.957573 L486.42776,620.957573 L480.87312,609.04992 L483.802107,609.04992 L477.005013,594.470507 L470.205493,609.04992 L473.13448,609.04992 L469.33432,617.198667 L433.48032,600.906027 L427.959653,603.4152 L424.72976,596.489493 L427.964507,596.489493 L422.409867,584.579413 L425.34128,584.579413 L418.544187,570.002427 L418.54176,570.002427 Z M1383.3092,624.466533 L1383.68048,624.466533 L1383.49605,624.864507 L1383.3092,624.466533 Z M1384.55893,627.145573 L1385.07581,627.145573 L1384.81616,627.698853 L1384.55893,627.145573 Z"></path>
        </g>
    </g>
</svg>