<?xml version="1.0" encoding="UTF-8"?>
<svg width="1456px" height="1099px" viewBox="0 0 1456 1099" version="1.1" xmlns="http://www.w3.org/2000/svg" xmlns:xlink="http://www.w3.org/1999/xlink">
    <!-- Generator: Sketch 41.2 (35397) - http://www.bohemiancoding.com/sketch -->
    <title>mountain-2</title>
    <desc>Created with Sketch.</desc>
    <defs></defs>
    <g id="Symbols" stroke="none" stroke-width="1" fill="none" fill-rule="evenodd">
        <g id="mountain-2" transform="translate(0.000000, -1.000000)" fill="#13242A">
            <path d="M38.9116,547 L25.4702933,575.823947 L31.2627467,575.823947 L20.28208,599.369893 L26.6787733,599.369893 L23.92208,605.278827 L0,594.121013 L0,701.221947 L0,750.277013 L0,765.863493 L0,784.927387 L0,798.781227 L0,1099.20013 L1456,1099.20013 L1456,663.03592 L1443.23573,668.988533 L1438.07664,657.930213 L1443.82056,657.930213 L1434.47789,637.902933 L1439.36763,637.902933 L1430.98349,619.926187 L1435.40245,619.926187 L1425.14008,597.91632 L1414.87285,619.926187 L1419.29909,619.926187 L1410.91253,637.902933 L1415.79984,637.902933 L1406.45717,657.930213 L1412.20109,657.930213 L1402.96277,677.74152 L1400.36867,672.174747 L1405.25355,672.174747 L1396.86941,654.198 L1401.2908,654.198 L1391.026,632.188133 L1380.76363,654.198 L1385.18501,654.198 L1376.80088,672.174747 L1381.68819,672.174747 L1372.34552,692.204453 L1378.08701,692.204453 L1373.81851,701.362693 L1341.31816,716.519653 L1337.24621,707.790933 L1343.47061,707.790933 L1333.34656,686.079547 L1338.64397,686.079547 L1329.55368,666.590987 L1334.34635,666.590987 L1323.22008,642.734427 L1312.09381,666.590987 L1316.88891,666.590987 L1307.80104,686.079547 L1313.09603,686.079547 L1302.96955,707.790933 L1309.19637,707.790933 L1304.60997,717.623787 L1276.52373,704.522213 L1253.03845,715.476187 L1234.70741,706.92704 L1227.85208,692.226293 L1232.23707,692.226293 L1222.06205,670.41056 L1211.88704,692.226293 L1216.27203,692.226293 L1213.93515,697.239787 L1156.70949,670.551307 L1155.15157,671.27688 L1149.13829,658.386427 L1153.76837,658.386427 L1146.24085,642.25152 L1150.17691,642.25152 L1143.42107,627.76432 L1146.98584,627.76432 L1138.71576,610.03024 L1130.44325,627.76432 L1134.00803,627.76432 L1127.25219,642.25152 L1131.18824,642.25152 L1123.66315,658.386427 L1128.2908,658.386427 L1119.38008,677.489147 L1124.214,677.489147 L1119.31941,687.989333 L1109.68069,692.48352 L1096.22483,663.628027 L1104.14304,663.628027 L1085.76589,624.228667 L1067.48581,663.424187 L1062.79507,653.363227 L1068.18227,653.363227 L1058.93667,633.534933 L1063.81184,633.534933 L1052.49387,609.260987 L1041.17104,633.534933 L1046.05349,633.534933 L1036.80547,653.363227 L1042.19024,653.363227 L1032.52725,674.084533 L1028.74893,665.989173 L1034.66515,665.989173 L1024.5144,644.229253 L1029.87005,644.229253 L1017.44552,617.591733 L1005.02341,644.229253 L1010.37421,644.229253 L1003.35387,659.281867 L996.219467,643.98416 L979.87344,679.034933 L977.779227,674.540747 L965.354693,701.178267 L970.705493,701.178267 L965.162987,713.06408 L961.219653,704.609573 L965.84488,704.609573 L958.322213,688.469813 L962.258267,688.469813 L955.502427,673.98504 L959.064773,673.98504 L950.794693,656.253387 L942.524613,673.98504 L946.089387,673.98504 L939.333547,688.469813 L943.2696,688.469813 L936.81224,702.31152 L927.724373,682.820533 L915.29984,709.46048 L920.653067,709.46048 L913.397333,725.022693 L913.259013,725.088213 L911.145387,720.5552 L915.435733,720.5552 L908.075653,704.77216 L911.955893,704.77216 L902.94568,685.45104 L893.935467,704.77216 L897.815707,704.77216 L892.515867,716.141093 L888.32016,707.147867 L893.200187,707.147867 L881.879787,682.876347 L870.559387,707.147867 L875.436987,707.147867 L866.9752,725.292053 L855.41456,700.508507 L842.992453,727.148453 L848.34568,727.148453 L844.208213,736.01792 L836.826293,720.1912 L841.70632,720.1912 L830.38592,695.917253 L819.701307,718.827413 L817.975947,715.126747 L814.357787,722.887227 L803.92312,700.508507 L800.897067,706.990133 L787.613493,678.503493 L775.926667,703.566107 L770.66808,692.289387 L761.657867,711.612933 L765.540533,711.612933 L758.25568,727.228533 L746.852773,702.77744 L734.430667,729.417387 L739.783893,729.417387 L732.960107,744.042907 L725.199627,727.3984 L729.487547,727.3984 L722.127467,711.612933 L726.007707,711.612933 L716.997493,692.289387 L707.98728,711.612933 L711.869947,711.612933 L706.72056,722.654267 L703.002907,714.682667 L708.356133,714.682667 L695.934027,688.047573 L690.665733,699.338853 L679.097813,674.540747 L668.066187,698.200747 L661.028853,683.116587 L665.906453,683.116587 L654.58848,658.84264 L643.26808,683.116587 L648.14568,683.116587 L643.877173,692.267547 L632.525227,667.925653 L638.924347,667.925653 L627.94368,644.379707 L633.733707,644.379707 L620.2924,615.55576 L606.848667,644.379707 L612.64112,644.379707 L604.390453,662.06768 L586.743733,624.228667 L568.369013,663.628027 L576.2848,663.628027 L570.640373,675.73224 L559.531093,670.551307 L530.423227,684.123653 L529.556907,682.274533 L533.847253,682.274533 L526.487173,666.489067 L530.367413,666.489067 L521.3572,647.167947 L512.429493,666.31192 L504.72968,649.796027 L495.71704,669.119573 L499.599707,669.119573 L492.239627,684.902613 L496.529973,684.902613 L492.79048,692.917893 L458.140107,676.756293 L457.880453,676.203013 L466.628587,676.203013 L451.617227,644.018133 L459.53544,644.018133 L441.16072,604.618773 L422.783573,644.018133 L430.704213,644.018133 L423.065067,660.395707 L413.931093,656.136907 L411.27632,657.376933 L404.479227,642.799947 L408.361893,642.799947 L399.349253,623.473973 L390.33904,642.799947 L394.221707,642.799947 L386.8592,658.58056 L391.149547,658.58056 L389.57464,661.956053 L339.3572,638.53872 L286.20592,663.329547 L280.377067,650.829787 L284.259733,650.829787 L275.24952,631.50624 L266.23688,650.829787 L270.121973,650.829787 L262.759467,666.6104 L267.047387,666.6104 L263.679173,673.834587 L251.732693,679.406213 L215.587493,662.54816 L220.528187,662.54816 L208.29536,636.315893 L214.69448,636.315893 L203.713813,612.772373 L209.506267,612.772373 L196.062533,583.943573 L182.621227,612.772373 L188.41368,612.772373 L177.433013,636.315893 L183.832133,636.315893 L174.149733,657.0736 L134.405787,638.53872 L114.82016,647.672693 L62.2342933,623.146373 L51.1468533,599.369893 L57.5459733,599.369893 L46.5653067,575.823947 L52.3553333,575.823947 L38.9116,547 Z M407.54896,658.58056 L408.69192,658.58056 L407.755227,659.019787 L407.54896,658.58056 Z M1067.58531,663.628027 L1075.30939,663.628027 L1071.44613,671.915093 L1067.58531,663.628027 Z M597.197813,663.628027 L603.662453,663.628027 L601.660453,667.92808 L608.057147,667.92808 L603.630907,677.416347 L597.197813,663.628027 Z M509.859653,669.119573 L513.739893,669.119573 L512.512,666.489067 L516.229653,666.489067 L512.429493,674.637813 L509.859653,669.119573 Z M1066.76024,675.450747 L1069.796,675.450747 L1068.28176,678.704907 L1066.76024,675.450747 Z M1033.16304,675.450747 L1038.22507,675.450747 L1035.69405,680.876773 L1033.16304,675.450747 Z M1404.78035,681.63632 L1407.14392,681.63632 L1405.95971,684.16976 L1404.78035,681.63632 Z M981.902133,683.38352 L985.76296,683.38352 L983.831333,687.523413 L981.902133,683.38352 Z M637.237813,694.155493 L642.996293,694.155493 L640.11584,700.328933 L637.237813,694.155493 Z M686.171547,701.178267 L689.806693,701.178267 L687.98912,705.07792 L686.171547,701.178267 Z M664.887253,702.942453 L670.27688,702.942453 L669.45424,701.178267 L672.028933,701.178267 L668.046773,709.717707 L664.887253,702.942453 Z M641.336453,702.942453 L644.284853,702.942453 L642.80944,706.106827 L641.336453,702.942453 Z M937.887253,704.609573 L940.369733,704.609573 L939.12728,707.271627 L937.887253,704.609573 Z M934.79568,709.46048 L938.10808,709.46048 L936.450667,713.010693 L934.79568,709.46048 Z M820.337093,720.1912 L823.940693,720.1912 L822.142533,724.05688 L820.337093,720.1912 Z M894.57368,720.5552 L894.745973,720.5552 L894.658613,720.7372 L894.57368,720.5552 Z M862.485867,727.148453 L867.839093,727.148453 L867.759013,726.973733 L871.57616,726.973733 L866.992187,736.806587 L862.485867,727.148453 Z M810.992,727.148453 L812.370347,727.148453 L811.681173,728.626293 L810.992,727.148453 Z M753.921653,729.417387 L759.27488,729.417387 L758.333333,727.3984 L762.468373,727.3984 L757.721813,737.566133 L753.921653,729.417387 Z M840.689547,740.019493 L842.344533,740.019493 L841.514613,741.793387 L840.689547,740.019493 Z M728.35672,744.9796 L732.525733,744.9796 L730.441227,749.447093 L728.35672,744.9796 Z"></path>
        </g>
    </g>
</svg>