<?xml version="1.0" encoding="UTF-8"?>
<svg width="1440px" height="637px" viewBox="0 0 1440 637" version="1.1" xmlns="http://www.w3.org/2000/svg" xmlns:xlink="http://www.w3.org/1999/xlink">
    <!-- Generator: Sketch 42 (36781) - http://www.bohemiancoding.com/sketch -->
    <title>mountain-6</title>
    <desc>Created with Sketch.</desc>
    <defs></defs>
    <g id="Page-1" stroke="none" stroke-width="1" fill="none" fill-rule="evenodd">
        <g id="arbor-v1" transform="translate(0.000000, -169.000000)" fill-rule="nonzero" fill="#225050">
            <polygon id="mountain-6" points="1357.24267 263.66125 1245.85867 213.04557 1210.11387 229.302763 1079.24373 169.830552 1029.1816 192.590623 1014.52453 185.917894 915.565067 230.879954 893.1912 220.713142 770.0136 276.69127 674.7912 233.403458 647.3456 245.875395 537.272 195.866326 487.937867 218.286695 438.579467 195.866326 430.013333 199.748641 364.177867 169.830552 219.912533 235.393145 170.772533 213.04557 159.779733 218.04405 126.946933 203.121402 81.9322667 223.552084 -8 182.69072 -8 264.413449 -8 283.169883 -8 298.35944 -8 805.3655 1448 805.3655 1448 379.451292 1448 222.435919"></polygon>
        </g>
    </g>
</svg>