<?xml version="1.0" encoding="UTF-8"?>
<svg width="1440px" height="665px" viewBox="0 0 1440 665" version="1.1" xmlns="http://www.w3.org/2000/svg" xmlns:xlink="http://www.w3.org/1999/xlink">
    <!-- Generator: Sketch 42 (36781) - http://www.bohemiancoding.com/sketch -->
    <title>mountain-5</title>
    <desc>Created with Sketch.</desc>
    <defs></defs>
    <g id="Page-1" stroke="none" stroke-width="1" fill="none" fill-rule="evenodd">
        <g id="arbor-v1" transform="translate(0.000000, -141.000000)" fill-rule="nonzero">
            <g id="mountain-5" transform="translate(-8.000000, 141.000000)">
                <polygon id="Shape" fill="#204446" points="1360.5592 86.5314572 1258.6392 132.172922 1156.7192 86.5314572 1072.14987 124.408292 1023.47093 102.594535 1005.02827 110.844454 857.972267 45.0149523 839.044267 53.4832516 719.652267 0.00436396083 500.2816 98.2269308 481.013867 89.5887802 430.9032 112.033413 371.546933 85.4395561 275.2568 128.58178 243.7344 114.45986 221.845867 124.262705 88.1608 64.4265268 20.6024 94.6843185 0 85.4395561 0 103.904816 0 164.274813 0 224.766132 0 664.3655 1456 664.3655 1456 180.944503 1456 129.28545"></polygon>
                <polygon id="Shape" fill="#1F4948" points="243.7344 114.45986 251.572533 133.750112 243.7344 145.518379 275.2568 128.58178"></polygon>
                <polygon id="Shape" fill="#1F4948" points="88.1608 64.4265268 105.972533 85.4395561 97.0666667 105.239362 117.2808 114.45986 88.1608 155.224166 146.4008 133.750112 169.065867 145.518379 221.845867 124.262705"></polygon>
            </g>
        </g>
    </g>
</svg>