<?xml version="1.0" encoding="UTF-8"?>
<svg width="1440px" height="717px" viewBox="0 0 1440 717" version="1.1" xmlns="http://www.w3.org/2000/svg" xmlns:xlink="http://www.w3.org/1999/xlink">
    <!-- Generator: Sketch 42 (36781) - http://www.bohemiancoding.com/sketch -->
    <title>Group</title>
    <desc>Created with Sketch.</desc>
    <defs></defs>
    <g id="Page-1" stroke="none" stroke-width="1" fill="none" fill-rule="evenodd">
        <g id="arbor-v1" transform="translate(0.000000, -307.000000)" fill="#11182A">
            <g id="Group" transform="translate(-29.000000, 306.000000)">
                <path d="M1455.76667,185.383283 L1452.73333,178.734819 L1460.01333,178.734819 L1447.2248,151.340235 L1453.97093,151.340235 L1438.31893,117.80674 L1422.66693,151.340235 L1429.41307,151.340235 L1416.62453,178.734819 L1424.0744,178.734819 L1411.48,206.032346 L1394.49333,213.942562 L1366.31973,200.815485 L1328.2696,218.552811 L1320.844,202.611056 L1325.84293,202.611056 L1317.2768,184.242853 L1321.69333,184.242853 L1311.21013,161.773956 L1300.72693,184.242853 L1305.24053,184.242853 L1296.6744,202.611056 L1301.67333,202.611056 L1292.13653,223.066002 L1298.00907,223.066002 L1292.3064,235.198236 L1264.8608,248.009875 L1262.70107,243.351098 L1271.46133,243.351098 L1257.2168,212.826397 L1264.66667,212.826397 L1251.87813,185.431812 L1258.6,185.431812 L1242.948,151.898317 L1227.296,185.431812 L1234.04213,185.431812 L1221.2536,212.826397 L1228.70347,212.826397 L1214.60453,243.375362 L1223.3648,243.375362 L1212.90587,265.795731 L1193.27413,256.648026 L1187.81413,259.195795 L1177.2824,236.605575 L1187.45013,236.605575 L1169.97813,199.165501 L1179.19947,199.165501 L1157.82053,153.329921 L1136.4416,199.165501 L1145.66293,199.165501 L1139.01387,213.408744 L1120.66827,174.076041 L1094.8,229.520351 L1105.9384,229.520351 L1098.24587,246.044453 L1087.78693,250.897347 L1079.26933,232.626203 L1084.26827,232.626203 L1075.6536,214.258 L1080.1672,214.258 L1069.684,191.789103 L1059.2008,214.258 L1063.7144,214.258 L1055.14827,232.626203 L1060.1472,232.626203 L1050.6104,253.081149 L1056.48293,253.081149 L1049.20293,268.925847 L1047.67413,269.629516 L1038.11307,249.150305 L1049.25147,249.150305 L1023.21333,193.754525 L1005.81413,231.243128 L992.491733,202.683849 L1003.63013,202.683849 L977.761867,147.239539 L952.014933,202.441204 L944.128267,185.456077 L950.8744,185.456077 L935.2224,151.922582 L919.5704,185.456077 L926.316533,185.456077 L913.528,212.850661 L920.977867,212.850661 L906.733333,243.375362 L915.4936,243.375362 L906.951733,261.670771 L898.24,243.011395 L904.5008,243.011395 L893.750667,219.935886 L899.453333,219.935886 L886.276533,191.692045 L873.099733,219.935886 L878.778133,219.935886 L872.007733,234.494567 L857.447733,202.950758 L841.9656,236.168815 L836.772533,225.055689 L841.213333,225.055689 L830.730133,202.586791 L821.023467,223.405705 L796.926667,171.746652 L771.0584,227.190962 L782.1968,227.190962 L770.063467,253.153943 L769.3112,252.789976 L764.9432,243.423891 L769.942133,243.423891 L761.376,225.055689 L765.986667,225.055689 L755.503467,202.586791 L745.020267,225.055689 L749.533867,225.055689 L745.8696,232.893112 L736.6968,213.214628 L742.9576,213.214628 L732.013333,190.30897 L737.691733,190.30897 L724.733333,162.065129 L711.556533,190.30897 L717.234933,190.30897 L710.1976,205.377205 L706.314933,197.272873 L713.7648,197.272873 L687.896533,141.828563 L671.1768,177.691447 L666.323467,167.160668 L655.840267,189.629565 L660.353867,189.629565 L655.500533,199.844906 L640.164,192.686888 L618.4696,202.805171 L611.505067,187.906788 L616.892267,187.906788 L608.253333,169.150354 L612.839733,169.150354 L604.977333,152.286549 L609.126933,152.286549 L599.420267,131.661751 L589.7136,152.286549 L593.8632,152.286549 L586.0008,169.150354 L590.5872,169.150354 L583.986667,183.320803 L565.6168,143.891043 L539.748533,199.335352 L550.886933,199.335352 L542.4664,217.388117 L521.2816,171.965032 L505.9936,204.746329 L501.6256,195.35598 L506.7216,195.35598 L494.879467,169.975346 L483.037333,195.35598 L488.133333,195.35598 L478.426667,216.077835 L484.056533,216.077835 L481.2416,222.095423 L443.968,204.722064 L438.5808,193.196442 L444.8416,193.196442 L434.091467,170.120933 L439.769867,170.120933 L426.593067,141.877092 L413.416267,170.120933 L419.094667,170.120933 L410.285867,189.022953 L400.9432,184.679614 L390.775467,189.532507 L384.0536,175.143678 L393.347733,175.143678 L378.253867,142.750613 L386.1648,142.750613 L372.599733,113.633251 L379.7584,113.633251 L363.16,77.9402185 L346.5616,113.536193 L353.720267,113.536193 L340.1552,142.653555 L348.066133,142.653555 L343.746667,151.825524 L335.034933,133.166148 L339.621333,133.166148 L331.758933,116.302343 L335.908533,116.302343 L326.201867,95.6775447 L316.4952,116.302343 L320.6448,116.302343 L312.7824,133.166148 L317.3688,133.166148 L308.608533,151.946846 L313.995733,151.946846 L310.064533,160.87617 L289.098133,151.170383 L287.205333,147.093953 L293.466133,147.093953 L282.716,124.018443 L288.3944,124.018443 L275.2176,95.7746026 L262.0408,124.018443 L267.7192,124.018443 L261.24,138.043306 L209.576267,113.948689 L202.005067,117.491302 L193.293333,99.2201571 L201.204267,99.2201571 L187.6392,70.1027953 L194.797867,70.1027953 L178.199467,34.5068206 L161.746667,70.1513243 L168.905333,70.1513243 L155.340267,99.268686 L163.2512,99.268686 L151.117867,125.474312 L136.8248,118.801583 L127.288,98.3466362 L134.2768,98.3466362 L121.415467,70.757936 L127.773333,70.757936 L116.901867,47.4640466 L122.580267,47.4640466 L112.8736,26.5480751 L118.066667,26.5480751 L106.127467,0.949061266 L94.1882667,26.5480751 L99.3328,26.5480751 L89.6261333,47.4640466 L95.3045333,47.4640466 L84.4330667,70.757936 L91.1064,70.757936 L80.8416,92.7658085 L21,64.8374058 L21,501.791947 L1477,501.791947 L1477,175.434851 L1455.76667,185.383283 Z M819.1792,243.618007 L821.1448,243.618007 L820.149867,245.729015 L819.1792,243.618007 Z M1005.52293,255.750241 L1004.72213,254.051728 L1006.22667,254.051728 L1005.52293,255.750241 Z M1007.77973,250.897347 L1007.0032,249.223099 L1008.65333,249.223099 L1007.77973,250.897347 Z M1083.0064,253.153943 L1083.152,253.153943 L1083.03067,253.153943 L1083.0064,253.153943 Z M956.9896,212.947719 L952.136267,202.708113 L963.056267,202.708113 L953.883467,222.386597 L949.466933,212.923455 L956.9896,212.947719 Z M903.360267,268.755996 L903.0448,268.901582 L903.0448,268.755996 L903.360267,268.755996 Z M822.843467,227.312284 L821.848533,225.177011 L824.809067,225.177011 L817.747467,240.293775 L811.6808,227.28802 L822.843467,227.312284 Z M743.054667,239.056287 L742.448,240.366568 L741.744267,240.05113 L741.2832,239.080551 L743.054667,239.056287 Z M711.508,216.053571 L710.246133,213.360215 L712.6728,213.360215 L711.508,216.053571 Z M708.232,209.405107 L706.873067,206.517635 L709.566667,206.517635 L708.232,209.405107 Z M587.262667,187.979581 L586.7288,189.144276 L586.194933,187.979581 L587.262667,187.979581 Z M581.972533,199.311088 L581.147467,201.082394 L580.3224,199.311088 L581.972533,199.311088 Z M343.746667,151.946846 L341.1016,157.600467 L338.456533,151.946846 L343.746667,151.946846 Z" id="mountain-1" fill-rule="nonzero"></path>
                <rect id="Rectangle-2" x="0" y="469" width="1495" height="315"></rect>
            </g>
        </g>
    </g>
</svg>