<?xml version="1.0" encoding="UTF-8"?>
<svg width="1440px" height="530px" viewBox="0 0 1440 530" version="1.1" xmlns="http://www.w3.org/2000/svg" xmlns:xlink="http://www.w3.org/1999/xlink">
    <!-- Generator: Sketch 42 (36781) - http://www.bohemiancoding.com/sketch -->
    <title>mountain-4</title>
    <desc>Created with Sketch.</desc>
    <defs></defs>
    <g id="Page-1" stroke="none" stroke-width="1" fill="none" fill-rule="evenodd">
        <g id="arbor-v1" transform="translate(0.000000, -276.000000)" fill-rule="nonzero" fill="#23373E">
            <path d="M1432.73627,310.952699 L1430.86773,306.949061 L1432.90613,306.949061 L1428.17413,296.830778 L1423.44213,306.949061 L1425.48053,306.949061 L1421.62213,315.223245 L1423.3208,315.223245 L1406.14,323.036404 L1400.26747,310.467409 L1393.4728,325.02609 L1396.40907,325.02609 L1394.97733,328.107677 L1390.124,330.29148 L1387.33333,324.273891 L1389.59013,324.273891 L1385.73173,315.999708 L1387.77013,315.999708 L1383.03813,305.881425 L1378.30613,315.999708 L1380.34453,315.999708 L1376.48613,324.273891 L1378.74293,324.273891 L1376.77733,328.520173 L1371.924,318.304832 L1366.07573,330.825298 L1368.5024,330.825298 L1363.64907,341.040639 L1366.3184,341.040639 L1357.82507,344.898689 L1341.22667,337.255382 L1341.08107,336.964208 L1344.30853,336.964208 L1338.8,325.050354 L1341.73627,325.050354 L1334.9416,310.491674 L1328.14693,325.050354 L1331.0832,325.050354 L1328.1712,331.310587 L1313.07733,324.443743 L1297.0856,331.723083 L1296.0664,329.515017 L1298.1048,329.515017 L1293.3728,319.396733 L1288.6408,329.515017 L1290.6792,329.515017 L1288.25253,334.513497 L1283.836,325.050354 L1286.77227,325.050354 L1279.9776,310.491674 L1273.18293,325.050354 L1276.1192,325.050354 L1273.4256,330.995149 L1270.99893,325.802553 L1273.4256,325.802553 L1267.57733,313.282087 L1261.72907,325.802553 L1264.15573,325.802553 L1259.3024,336.017894 L1262.09307,336.017894 L1261.21947,337.910523 L1247.9456,343.952375 L1199.41227,321.313626 L1171.36,334.537761 L1075.89493,291.177157 L1009.98667,321.070982 L1001.42053,317.188667 L976.862667,328.350322 L973.1256,320.318783 L975.552267,320.318783 L969.704,307.798318 L963.855733,320.318783 L966.2824,320.318783 L961.429067,330.534124 L964.219733,330.534124 L962.181333,334.877464 L953.9064,338.638457 L950.533333,331.359116 L952.571733,331.359116 L948.106667,321.289362 L943.374667,331.407645 L945.413067,331.407645 L943.4232,335.678191 L930.4648,329.781926 L930.3192,329.466488 L932.576,329.466488 L928.693333,321.289362 L930.731733,321.289362 L925.999733,311.171079 L921.413333,321.289362 L923.451733,321.289362 L921.389067,325.705495 L902.825067,317.26146 L865.502933,334.246588 L861.256267,325.147412 L864.192533,325.147412 L857.397867,310.588731 L850.6032,325.147412 L853.466667,325.147412 L847.9096,337.061266 L851.04,337.061266 L848.856,341.744309 L836.722667,347.228078 L833.1312,339.560506 L836.067467,339.560506 L829.2728,325.001826 L822.478133,339.560506 L825.4144,339.560506 L819.857333,351.47436 L823.0848,351.47436 L821.92,353.900807 L799.376267,364.140413 L796.5128,358.001502 L799.157867,358.001502 L794.862667,348.781004 L797.119467,348.781004 L793.261067,340.506821 L795.299467,340.506821 L790.567467,330.388537 L785.835467,340.506821 L787.946667,340.506821 L784.088267,348.781004 L786.345067,348.781004 L782.049867,358.001502 L784.694933,358.001502 L782.510933,362.66028 L765.184533,354.798592 L744.8248,364.043355 L738.758133,351.013335 L731.963467,365.572016 L734.899733,365.572016 L733.128267,369.357273 L726.018133,372.584447 L648.122133,336.187745 L644.482133,337.886258 L641.109067,330.606918 L644.045333,330.606918 L637.250667,316.048237 L630.456,330.606918 L633.392267,330.606918 L627.786667,342.5693 L631.014133,342.5693 L630.067733,344.607516 L613.469333,352.347881 L611.7464,348.635417 L614.925333,348.635417 L609.756533,337.57082 L612.450133,337.57082 L607.8152,327.646653 L610.241867,327.646653 L604.563467,315.514419 L598.885067,327.646653 L601.311733,327.646653 L596.6768,337.57082 L599.3704,337.57082 L594.2016,348.635417 L597.380533,348.635417 L591.386667,361.73823 L593.4008,361.73823 L591.7992,362.490429 L546.8088,342.035482 L524.434933,352.202294 L476.7024,330.50986 L475.197867,327.282686 L478.425333,327.282686 L472.868267,315.368832 L475.804533,315.368832 L469.009867,300.810151 L462.2152,315.368832 L465.2,315.368832 L461.390133,323.521693 L425.548267,307.240235 L420.039733,309.666682 L416.666667,302.824102 L419.894133,302.824102 L414.337067,290.910248 L417.273333,290.910248 L410.478667,276.351567 L403.684,290.910248 L406.620267,290.910248 L401.0632,302.824102 L404.290667,302.824102 L401.160267,309.545359 L400.6992,309.326979 L395.1664,297.461654 L398.102667,297.461654 L391.308,282.902973 L384.513333,297.461654 L387.546667,297.461654 L385.289867,302.314548 L360.853333,291.152893 L324.720267,307.579937 L323.8224,305.63878 L326.613067,305.63878 L321.759733,295.423439 L324.1864,295.423439 L318.338133,282.902973 L312.489867,295.423439 L314.916533,295.423439 L310.0632,305.63878 L312.853867,305.63878 L308.6072,314.76222 L303.753867,316.970287 L301.933867,313.039443 L305.4768,313.039443 L299.410133,300.033688 L302.613333,300.033688 L295.333333,284.116197 L288.053333,300.033688 L291.256533,300.033688 L285.189867,313.039443 L288.7328,313.039443 L282.277867,326.845925 L262.864533,335.702456 L260.316533,330.242951 L262.7432,330.242951 L256.894933,317.722485 L251.046667,330.242951 L253.473333,330.242951 L248.62,340.458292 L251.410667,340.458292 L251.216533,340.870788 L229.789067,350.576575 L194.02,334.319381 L125.1512,365.717603 L80.1608,344.753103 L37.7184,364.552909 L-8,343.758259 L-8,805.3655 L1448,805.3655 L1448,304.013061 L1432.73627,310.952699 Z M1376.92293,334.028208 L1376.656,333.470125 L1377.1656,333.470125 L1376.92293,334.028208 Z M1375.7824,330.801033 L1375.58827,331.189265 L1375.39413,330.801033 L1375.7824,330.801033 Z" id="mountain-4"></path>
        </g>
    </g>
</svg>