<?xml version="1.0" encoding="UTF-8"?>
<svg width="1440px" height="553px" viewBox="0 0 1440 553" version="1.1" xmlns="http://www.w3.org/2000/svg" xmlns:xlink="http://www.w3.org/1999/xlink">
    <!-- Generator: Sketch 42 (36781) - http://www.bohemiancoding.com/sketch -->
    <title>mountain-2</title>
    <desc>Created with Sketch.</desc>
    <defs></defs>
    <g id="Page-1" stroke="none" stroke-width="1" fill="none" fill-rule="evenodd">
        <g id="arbor-v1" transform="translate(0.000000, -255.000000)" fill-rule="nonzero" fill="#13242A">
            <path d="M1435.23573,377.607192 L1430.06693,366.542595 L1435.86667,366.542595 L1426.524,346.524409 L1431.37733,346.524409 L1422.98107,328.568702 L1427.3976,328.568702 L1417.1328,306.56083 L1406.868,328.568702 L1411.28453,328.568702 L1402.88827,346.548673 L1407.7416,346.548673 L1398.39893,366.566859 L1404.32,366.566859 L1395.0744,386.366665 L1392.47787,380.810102 L1397.3312,380.810102 L1388.93493,362.830131 L1393.35147,362.830131 L1383.08667,340.822259 L1372.77333,362.830131 L1377.18987,362.830131 L1368.7936,380.810102 L1373.64693,380.810102 L1364.30427,400.828288 L1370.05547,400.828288 L1365.78453,410.000257 L1333.29147,425.16555 L1329.21467,416.430341 L1335.4512,416.430341 L1325.332,394.713642 L1330.62213,394.713642 L1321.52213,375.302068 L1326.37547,375.302068 L1315.23707,351.450096 L1304.12293,375.302068 L1308.97627,375.302068 L1299.87627,394.713642 L1305.1664,394.713642 L1295.0472,416.430341 L1301.28373,416.430341 L1296.69733,426.257451 L1268.42667,413.154638 L1244.93653,424.097913 L1226.6152,415.55682 L1219.89333,400.852553 L1224.2856,400.852553 L1214.11787,379.014532 L1203.95013,400.852553 L1208.3424,400.852553 L1205.91573,405.875298 L1148.69493,379.184383 L1147.14187,379.912317 L1141.12373,367.027884 L1145.75867,367.027884 L1138.236,350.892013 L1142.24,350.892013 L1135.49387,336.333332 L1139.06107,336.333332 L1130.78613,318.596006 L1122.5112,336.333332 L1126.0784,336.333332 L1119.33227,350.892013 L1123.26347,350.892013 L1115.7408,367.027884 L1120.4,367.027884 L1111.49413,386.124021 L1116.34747,386.124021 L1111.49413,396.630535 L1101.78747,401.119462 L1088.2224,372.244745 L1096.13333,372.244745 L1077.76347,332.839249 L1059.49067,372.026365 L1054.88,362.005139 L1060.2672,362.005139 L1051.0216,342.181069 L1055.87493,342.181069 L1044.56667,317.916601 L1033.2584,342.181069 L1038.11173,342.181069 L1028.86613,362.005139 L1034.25333,362.005139 L1024.54667,382.726995 L1020.76107,374.671192 L1026.68213,374.671192 L1016.53867,352.83317 L1021.9016,352.83317 L1009.47707,326.142256 L997.052533,352.83317 L1002.41547,352.83317 L995.4024,367.877141 L988.268,352.590526 L971.912267,387.628418 L969.825333,383.139491 L957.4008,409.830406 L962.666667,409.830406 L957.133867,421.719995 L953.1784,413.27596 L957.813333,413.27596 L950.290667,397.140089 L954.221867,397.140089 L947.475733,382.581408 L951.042933,382.581408 L942.792267,364.965404 L934.517333,382.702731 L938.084533,382.702731 L931.3384,397.261412 L935.2696,397.261412 L928.814667,411.092158 L919.714667,391.680584 L907.290133,418.371499 L912.653067,418.371499 L905.373067,433.925023 L905.227467,433.925023 L903.116267,429.387567 L907.411467,429.387567 L900.131467,413.615663 L904.014133,413.615663 L895.0112,394.204089 L886.008267,413.615663 L889.866667,413.615663 L884.576533,424.971434 L880.3784,415.969316 L885.231733,415.969316 L873.923467,391.704848 L862.6152,415.969316 L867.468533,415.969316 L858.999467,434.119139 L847.448533,409.345117 L835.024,436.036032 L840.386933,436.036032 L836.2616,444.916827 L828.9816,429.096394 L833.834933,429.096394 L822.526667,404.831926 L811.849333,427.737583 L810.1264,424.049384 L806.510667,431.814014 L796.076,409.442175 L792.8,415.629614 L779.526133,387.143128 L767.8296,412.208324 L762.563733,400.925346 L753.5608,420.336921 L757.443467,420.336921 L750.163467,435.963238 L738.758133,411.504654 L726.3336,438.195569 L731.696533,438.195569 L724.8776,452.75425 L717.112267,436.108825 L721.407467,436.108825 L714.127467,420.336921 L718.010133,420.336921 L709.0072,400.925346 L700.004267,420.336921 L703.886933,420.336921 L698.7424,431.377254 L695.005333,423.200128 L700.368267,423.200128 L687.943733,396.509213 L682.677867,407.792191 L671.102667,382.993904 L660.061333,406.651761 L653.024,391.656319 L657.877333,391.656319 L646.569067,367.391851 L635.2608,391.656319 L640.114133,391.656319 L635.8432,400.804024 L624.4864,376.539556 L630.8928,376.539556 L619.9,353.003022 L625.699733,353.003022 L612.256,324.176834 L598.812267,353.003022 L604.612,353.003022 L596.361333,370.691819 L578.719467,332.863513 L560.373867,372.244745 L568.2848,372.244745 L562.630667,384.376979 L551.516533,379.184383 L522.396533,392.74822 L521.522933,390.904121 L525.866667,390.904121 L518.586667,375.132217 L522.469333,375.132217 L513.4664,355.720642 L504.536267,374.865307 L496.843733,358.365469 L487.8408,377.777044 L491.723467,377.777044 L484.443467,393.548948 L488.738667,393.548948 L485.0016,401.556222 L450.3488,385.396087 L450.081867,384.838004 L458.817867,384.838004 L443.7968,352.663319 L451.707733,352.663319 L433.337867,313.257823 L414.968,352.663319 L422.878933,352.663319 L415.234933,369.041835 L406.110667,364.771289 L403.4656,366.008777 L396.670933,351.450096 L400.5536,351.450096 L391.550667,332.038521 L382.547733,351.450096 L386.4304,351.450096 L379.1504,367.222 L383.4456,367.222 L381.868267,370.594761 L331.660533,347.179549 L278.516533,371.977836 L272.692533,359.481635 L276.5752,359.481635 L267.572267,340.07006 L258.569333,359.481635 L262.452,359.481635 L255.172,375.253539 L258.933333,375.253539 L255.560267,382.532879 L243.621067,388.113707 L207.488,371.249902 L212.341333,371.249902 L200.208,345.020012 L206.6144,345.020012 L195.718667,321.289362 L201.5184,321.289362 L188.074667,292.584496 L174.630933,321.289362 L180.430667,321.289362 L169.437867,344.825896 L175.844267,344.825896 L166.1376,365.572016 L126.3888,347.033963 L106.8056,356.157403 L54.244,331.771612 L43.1541333,307.992433 L49.5605333,307.992433 L38.5677333,284.455899 L44.3674667,284.455899 L30.8266667,255.629711 L17.48,284.455899 L23.2797333,284.455899 L12.2869333,307.992433 L18.6933333,307.992433 L15.9269333,314.010021 L-8,302.751308 L-8,807.791947 L1448,807.791947 L1448,371.662398 L1435.23573,377.607192 Z M634.799733,414.731829 L633.319467,411.577448 L636.28,411.577448 L634.799733,414.731829 Z M1067.30453,372.244745 L1063.44613,380.518929 L1059.58773,372.244745 L1067.30453,372.244745 Z M1061.796,384.061541 L1060.2672,387.31298 L1058.7384,384.061541 L1061.796,384.061541 Z M1030.24933,384.061541 L1027.82267,389.496782 L1025.396,384.061541 L1030.24933,384.061541 Z M977.7848,391.996022 L975.843467,396.145246 L973.902133,391.996022 L977.7848,391.996022 Z M932.381867,413.227432 L931.12,415.920787 L929.8824,413.251696 L932.381867,413.227432 Z M930.125067,418.080325 L928.474933,421.622937 L926.8248,418.080325 L930.125067,418.080325 Z M886.760533,429.169187 L886.760533,429.363303 L886.760533,429.169187 Z M859.8488,435.769122 L859.8488,435.599271 L863.658667,435.599271 L859.072267,445.426381 L854.558667,435.720593 L859.8488,435.769122 Z M834.344533,448.62929 L833.519467,450.400597 L832.6944,448.62929 L834.344533,448.62929 Z M815.9504,428.80522 L814.154667,432.66327 L812.358933,428.80522 L815.9504,428.80522 Z M804.3752,435.769122 L803.695733,437.249255 L803.016267,435.769122 L804.3752,435.769122 Z M751.279733,438.025718 L750.333333,436.011767 L754.458667,436.011767 L749.605333,446.178579 L745.795467,438.025718 L751.279733,438.025718 Z M724.5864,453.579242 L722.499467,458.043904 L720.412533,453.579242 L724.5864,453.579242 Z M681.877067,409.781877 L680.057067,413.688456 L678.237067,409.781877 L681.877067,409.781877 Z M662.463733,411.553183 L661.638667,409.781877 L664.210933,409.781877 L660.037067,418.347234 L656.8824,411.577448 L662.463733,411.553183 Z M635.066667,402.79371 L632.178933,408.956885 L629.2912,402.79371 L635.066667,402.79371 Z M595.6576,372.244745 L593.643467,376.539556 L600.049867,376.539556 L595.633333,386.026963 L589.202667,372.244745 L595.6576,372.244745 Z M505.725333,377.728515 L504.487733,375.107952 L508.200533,375.107952 L504.390667,383.260813 L501.8184,377.752779 L505.725333,377.728515 Z M400.674933,367.197736 L399.728533,367.634496 L399.5344,367.197736 L400.674933,367.197736 Z M1399.12693,390.24898 L1397.93787,392.675427 L1396.7488,390.24898 L1399.12693,390.24898 Z" id="mountain-2"></path>
        </g>
    </g>
</svg>