<?xml version="1.0" encoding="UTF-8"?>
<svg width="1440px" height="558px" viewBox="0 0 1440 558" version="1.1" xmlns="http://www.w3.org/2000/svg" xmlns:xlink="http://www.w3.org/1999/xlink">
    <!-- Generator: Sketch 42 (36781) - http://www.bohemiancoding.com/sketch -->
    <title>mountain-3</title>
    <desc>Created with Sketch.</desc>
    <defs></defs>
    <g id="Page-1" stroke="none" stroke-width="1" fill="none" fill-rule="evenodd">
        <g id="arbor-v1" transform="translate(0.000000, -250.000000)" fill-rule="nonzero" fill="#1A2C32">
            <path d="M1439.7736,356.108874 L1438.77867,353.9736 L1441.9576,353.9736 L1436.52187,342.302391 L1439.38533,342.302391 L1432.73627,328.01062 L1426.16,342.302391 L1429.02347,342.302391 L1423.58773,353.9736 L1426.76667,353.9736 L1421.91333,364.528644 L1387.26053,380.68878 L1367.02213,371.249902 L1368.7936,371.249902 L1362.92107,358.632378 L1366.00293,358.632378 L1360.7128,347.300872 L1363.50347,347.300872 L1356.83013,333.421596 L1350.3752,347.276607 L1353.16587,347.276607 L1347.87573,358.608114 L1350.93333,358.608114 L1348.94347,362.87866 L1336.37333,357.055188 L1330.23387,359.918395 L1329.57867,358.486792 L1333.2672,358.486792 L1326.9336,344.898689 L1330.2824,344.898689 L1322.51707,328.277529 L1314.75173,344.898689 L1318.10053,344.898689 L1311.76693,358.486792 L1315.45547,358.486792 L1312.10667,365.499223 L1276.4832,348.902327 L1273.61973,342.739152 L1276.79867,342.739152 L1271.46,330.995149 L1274.32347,330.995149 L1267.6744,316.703377 L1261.02533,330.995149 L1263.8888,330.995149 L1259.32667,340.700936 L1240.27733,331.820141 L1235.22987,320.998188 L1238.9184,320.998188 L1232.5848,307.410086 L1235.9336,307.410086 L1228.16827,290.788926 L1220.40293,307.410086 L1223.75173,307.410086 L1217.41813,320.998188 L1221.10667,320.998188 L1220.37867,322.551114 L1217.05413,320.998188 L1217.46667,320.998188 L1210.40507,305.85716 L1214.0936,305.85716 L1207.76,292.414645 L1211.1088,292.414645 L1203.34347,275.793484 L1195.62667,292.414645 L1198.97547,292.414645 L1192.64187,306.002747 L1196.3304,306.002747 L1194.24347,310.467409 L1188.7592,307.91964 L1173.9808,314.810749 L1138.6,298.310911 L1134.71733,289.988198 L1137.7992,289.988198 L1132.53333,278.656691 L1135.324,278.656691 L1128.86907,264.80168 L1122.41413,278.656691 L1125.2048,278.656691 L1119.98747,289.745553 L1093.29413,277.273617 L1087.03333,280.185353 L1084.728,275.332459 L1087.80987,275.332459 L1082.51973,264.000953 L1085.3104,264.000953 L1078.85547,250.145941 L1072.40053,264.000953 L1075.1912,264.000953 L1069.82827,275.186873 L1072.91013,275.186873 L1067.0376,287.804396 L1070.50773,287.804396 L1037.89333,302.969688 L1033.9864,294.598447 L1036.77707,294.598447 L1030.32213,280.743436 L1023.84293,294.598447 L1026.6336,294.598447 L1021.34347,305.929954 L1024.42533,305.929954 L1022.38693,310.297558 L998.120267,321.653329 L992.733067,310.127707 L996.081867,310.127707 L988.316533,293.506546 L980.5512,310.127707 L983.9,310.127707 L977.469333,323.715809 L981.157867,323.715809 L977.712,330.995149 L928.936,353.75522 L924.082667,343.515615 L927.431467,343.515615 L919.666133,326.894454 L911.9008,343.515615 L915.2496,343.515615 L908.916,357.103717 L912.604533,357.103717 L910.177867,362.514693 L882.101333,375.617506 L878.34,367.561703 L881.6888,367.561703 L873.923467,350.940542 L866.158133,367.561703 L869.506933,367.561703 L863.173333,381.149805 L866.861867,381.149805 L865.915467,383.18802 L857.931733,386.803426 L857.106667,385.03212 L861.134933,385.03212 L854.218933,370.20653 L857.858933,370.20653 L849.389867,352.056707 L840.9208,370.20653 L844.5608,370.20653 L838.688267,382.775524 L828.447733,377.92263 L825.4144,379.32997 L821.386133,370.667554 L824.734933,370.667554 L816.9696,354.046394 L809.204267,370.667554 L812.553067,370.667554 L806.219467,384.255657 L809.908,384.255657 L808.5248,387.215922 L804.6664,389.011492 L784.743467,379.718201 L779.598933,368.677868 L782.608,368.677868 L777.754667,358.171353 L780.326933,358.171353 L775.813333,348.902327 L778.24,348.902327 L772.8528,337.35244 L767.4656,348.902327 L769.892267,348.902327 L765.5,358.341205 L768.072267,358.341205 L763.218933,368.847719 L766.106667,368.847719 L765.233067,370.740348 L763.631467,369.988149 L750.406133,376.151324 L736.064533,369.454331 L735.0696,367.319058 L738.758133,367.319058 L732.424533,353.730956 L735.773333,353.730956 L728.008,337.109795 L720.242667,353.730956 L723.591467,353.730956 L719.805867,361.859553 L709.419733,357.006659 L709.128533,357.152246 L705.124533,348.562624 L707.6968,348.562624 L703.304533,339.123746 L705.7312,339.123746 L700.344,327.573859 L694.9568,339.123746 L697.383467,339.123746 L692.9912,348.562624 L695.563467,348.562624 L690.710133,358.899287 L688.793067,354.798592 L691.365333,354.798592 L686.973067,345.359714 L689.399733,345.359714 L683.6,333.858356 L678.2128,345.408243 L680.639467,345.408243 L676.2472,354.847121 L678.746667,354.847121 L673.893333,365.353636 L676.9024,365.353636 L672.801333,374.113109 L657.416267,381.392449 L572.8712,341.91416 L566.9016,329.102521 L570.080533,329.102521 L564.693333,317.455576 L567.5568,317.455576 L560.907733,303.163804 L554.258667,317.455576 L557.122133,317.455576 L551.6864,329.126785 L554.865333,329.126785 L553.190933,332.717926 L542.1496,327.573859 L528.8272,333.785563 L492.4272,316.800435 L451.8048,335.750985 L451.173867,334.416439 L454.3528,334.416439 L448.917067,322.74523 L451.780533,322.74523 L445.131467,308.453458 L438.4824,322.74523 L441.345867,322.74523 L435.910133,334.416439 L439.089067,334.416439 L434.745333,343.70973 L411.061067,354.750063 L385.168533,342.617829 L357.6744,355.429469 L354.665333,348.97512 L357.5288,348.97512 L350.879733,334.683348 L344.230667,348.97512 L347.094133,348.97512 L341.44,360.694858 L344.618933,360.694858 L344.157867,361.689701 L326.564533,369.818298 L295.478933,355.259617 L292.0088,347.980277 L295.187733,347.980277 L289.752,336.309068 L292.615467,336.309068 L285.9664,322.017296 L279.317333,336.309068 L282.1808,336.309068 L277.327467,346.888376 L260.898933,339.220804 L256.0456,328.738554 L259.3944,328.738554 L251.629067,312.117393 L243.863733,328.738554 L247.212533,328.738554 L245.6352,332.111315 L238.6464,328.859876 L236.972,325.24447 L239.52,325.24447 L235.127733,315.805592 L237.5544,315.805592 L231.9488,304.304234 L226.5616,315.854121 L228.988267,315.854121 L224.596,325.292999 L227.168267,325.292999 L223.237067,333.421596 L212.4384,338.468605 L207.585067,336.21201 L202.731733,325.899611 L205.910667,325.899611 L200.474933,314.228402 L203.362667,314.228402 L196.7136,299.93663 L190.064533,314.228402 L192.928,314.228402 L187.492267,325.899611 L190.6712,325.899611 L189.749067,327.889297 L147.039733,307.968169 L137.114667,312.602682 L132.746667,303.163804 L135.173333,303.163804 L129.786133,291.613917 L124.398933,303.163804 L126.8256,303.163804 L122.433333,312.602682 L124.738667,312.602682 L121.3656,319.882023 L120.904533,320.100403 L114.910667,307.21597 L118.186667,307.21597 L110.421333,290.59481 L102.656,307.21597 L106.053333,307.21597 L99.7197333,320.804073 L103.408267,320.804073 L98.9674667,330.315744 L89.0666667,334.950257 L73.6816,327.670917 L74.992,327.670917 L69.1922667,315.223245 L72.08,315.223245 L67.2266667,304.71673 L69.7989333,304.71673 L65.4066667,295.277852 L67.8333333,295.277852 L62.3733333,283.849288 L56.9861333,295.399174 L59.4128,295.399174 L55.0205333,304.838053 L57.52,304.838053 L52.6666667,315.344567 L55.6757333,315.344567 L54.1469333,318.644535 L26.9197333,306.002747 L20.6589333,292.584496 L24.3474667,292.584496 L18.0138667,278.996394 L21.3626667,278.996394 L13.5973333,262.375233 L5.832,278.996394 L9.1808,278.996394 L2.8472,292.584496 L6.56,292.584496 L5.05546667,295.81167 L-8,289.745553 L-8,807.791947 L1448,807.791947 L1448,352.275088 L1439.7736,356.108874 Z M134.5424,312.602682 L136.969067,312.602682 L135.027733,313.500468 L134.5424,312.602682 Z M117.555733,320.779808 L119.4,320.779808 L117.895467,321.483478 L117.555733,320.779808 Z M279.899733,347.980277 L279.899733,348.101599 L279.6328,347.980277 L279.899733,347.980277 Z M693.3552,359.117668 L691.923467,362.174991 L690.491733,359.117668 L693.3552,359.117668 Z M1122.8752,289.963934 L1122.48693,290.81319 L1120.6912,289.963934 L1122.8752,289.963934 Z" id="mountain-3"></path>
        </g>
    </g>
</svg>